<mxfile host="app.diagrams.net" agent="Mozilla/5.0 (Windows NT 10.0; Win64; x64) AppleWebKit/537.36 (KHTML, like Gecko) Chrome/137.0.0.0 Safari/537.36" version="27.1.6">
  <diagram name="Page-1" id="qxWqUr5_5EyC2vsg5Lgr">
    <mxGraphModel dx="1042" dy="561" grid="1" gridSize="10" guides="1" tooltips="1" connect="1" arrows="1" fold="1" page="1" pageScale="1" pageWidth="850" pageHeight="1100" math="0" shadow="0">
      <root>
        <mxCell id="0" />
        <mxCell id="1" parent="0" />
        <mxCell id="1t1-JDZ1b1aqbGwYgRup-1" value="DimJourneyStatus" style="swimlane;childLayout=stackLayout;horizontal=1;startSize=50;horizontalStack=0;rounded=1;fontSize=14;fontStyle=0;strokeWidth=2;resizeParent=0;resizeLast=1;shadow=0;dashed=0;align=center;arcSize=4;whiteSpace=wrap;html=1;labelBackgroundColor=none;fillColor=#A8DADC;strokeColor=#457B9D;fontColor=#1D3557;" vertex="1" parent="1">
          <mxGeometry x="530" y="770" width="160" height="120" as="geometry" />
        </mxCell>
        <mxCell id="1t1-JDZ1b1aqbGwYgRup-2" value="JourneyStatusID_BK&lt;div&gt;StatusCode&amp;nbsp;&lt;/div&gt;&lt;div&gt;Label_EN&lt;/div&gt;&lt;div&gt;Label_FA&lt;/div&gt;" style="align=left;strokeColor=none;fillColor=none;spacingLeft=4;spacingRight=4;fontSize=12;verticalAlign=top;resizable=0;rotatable=0;part=1;html=1;whiteSpace=wrap;labelBackgroundColor=none;fontColor=#1D3557;" vertex="1" parent="1t1-JDZ1b1aqbGwYgRup-1">
          <mxGeometry y="50" width="160" height="70" as="geometry" />
        </mxCell>
        <mxCell id="1t1-JDZ1b1aqbGwYgRup-3" value="DimRouteStatus" style="swimlane;childLayout=stackLayout;horizontal=1;startSize=50;horizontalStack=0;rounded=1;fontSize=14;fontStyle=0;strokeWidth=2;resizeParent=0;resizeLast=1;shadow=0;dashed=0;align=center;arcSize=4;whiteSpace=wrap;html=1;labelBackgroundColor=none;fillColor=#A8DADC;strokeColor=#457B9D;fontColor=#1D3557;" vertex="1" parent="1">
          <mxGeometry x="530" y="920" width="160" height="120" as="geometry" />
        </mxCell>
        <mxCell id="1t1-JDZ1b1aqbGwYgRup-4" value="&lt;div&gt;RouteStatusID_BK&lt;/div&gt;&lt;div&gt;StatusCode&amp;nbsp;&lt;/div&gt;&lt;div&gt;Label_EN&lt;/div&gt;&lt;div&gt;Label_FA&lt;/div&gt;" style="align=left;strokeColor=none;fillColor=none;spacingLeft=4;spacingRight=4;fontSize=12;verticalAlign=top;resizable=0;rotatable=0;part=1;html=1;whiteSpace=wrap;labelBackgroundColor=none;fontColor=#1D3557;" vertex="1" parent="1t1-JDZ1b1aqbGwYgRup-3">
          <mxGeometry y="50" width="160" height="70" as="geometry" />
        </mxCell>
        <mxCell id="1t1-JDZ1b1aqbGwYgRup-6" value="DimDevice" style="swimlane;childLayout=stackLayout;horizontal=1;startSize=50;horizontalStack=0;rounded=1;fontSize=14;fontStyle=0;strokeWidth=2;resizeParent=0;resizeLast=1;shadow=0;dashed=0;align=center;arcSize=4;whiteSpace=wrap;html=1;labelBackgroundColor=none;fillColor=#A8DADC;strokeColor=#457B9D;fontColor=#1D3557;" vertex="1" parent="1">
          <mxGeometry x="650" y="420" width="160" height="280" as="geometry" />
        </mxCell>
        <mxCell id="1t1-JDZ1b1aqbGwYgRup-7" value="&lt;div&gt;&amp;nbsp;DeviceID_BK&amp;nbsp; &amp;nbsp; &amp;nbsp;&amp;nbsp;&lt;/div&gt;&lt;div&gt;&amp;nbsp;DeviceCode&amp;nbsp; &amp;nbsp; &amp;nbsp; &amp;nbsp;&lt;/div&gt;&lt;div&gt;&amp;nbsp;DeviceTypeID&amp;nbsp; &amp;nbsp; &amp;nbsp;&lt;/div&gt;&lt;div&gt;&amp;nbsp;TypeCode&amp;nbsp; &amp;nbsp; &amp;nbsp; &amp;nbsp;&amp;nbsp;&lt;/div&gt;&lt;div&gt;&amp;nbsp;Type_EN&amp;nbsp; &amp;nbsp; &amp;nbsp; &amp;nbsp; &amp;nbsp;&lt;/div&gt;&lt;div&gt;&amp;nbsp;Type_FA&amp;nbsp; &amp;nbsp; &amp;nbsp; &amp;nbsp; &amp;nbsp;&amp;nbsp;&lt;/div&gt;&lt;div&gt;&amp;nbsp; DeviceStatusID&amp;nbsp; &amp;nbsp;&lt;/div&gt;&lt;div&gt;&amp;nbsp; StatusCode&amp;nbsp; &amp;nbsp; &amp;nbsp; &amp;nbsp;&lt;/div&gt;&lt;div&gt;&amp;nbsp; Status_EN&amp;nbsp; &amp;nbsp; &amp;nbsp; &amp;nbsp;&amp;nbsp;&lt;/div&gt;&lt;div&gt;&amp;nbsp; Status_FA&amp;nbsp; &amp;nbsp; &amp;nbsp; &amp;nbsp;&amp;nbsp;&lt;/div&gt;&lt;div&gt;&lt;span style=&quot;background-color: transparent; color: light-dark(rgb(0, 0, 0), rgb(255, 255, 255));&quot;&gt;&amp;nbsp; &amp;nbsp;InstallDate&amp;nbsp; &amp;nbsp; &amp;nbsp;&amp;nbsp;&lt;/span&gt;&lt;/div&gt;&lt;div&gt;&amp;nbsp; &amp;nbsp; SerialNo&amp;nbsp; &amp;nbsp; &amp;nbsp; &amp;nbsp; &amp;nbsp;&lt;/div&gt;&lt;div&gt;&lt;span style=&quot;white-space: normal;&quot;&gt;&amp;nbsp; &amp;nbsp;FirmwareVersion&amp;nbsp;&amp;nbsp;&lt;/span&gt;&lt;/div&gt;&lt;div&gt;&amp;nbsp; &amp;nbsp;LastServiceDT&amp;nbsp; &amp;nbsp;&amp;nbsp;&lt;/div&gt;&lt;div&gt;&amp;nbsp; &amp;nbsp;IPAddress&amp;nbsp; &amp;nbsp; &amp;nbsp; &amp;nbsp;&amp;nbsp;&lt;/div&gt;" style="align=left;strokeColor=none;fillColor=none;spacingLeft=4;spacingRight=4;fontSize=12;verticalAlign=top;resizable=0;rotatable=0;part=1;html=1;whiteSpace=wrap;labelBackgroundColor=none;fontColor=#1D3557;" vertex="1" parent="1t1-JDZ1b1aqbGwYgRup-6">
          <mxGeometry y="50" width="160" height="230" as="geometry" />
        </mxCell>
        <mxCell id="1t1-JDZ1b1aqbGwYgRup-9" value="FactTrnsTap" style="swimlane;childLayout=stackLayout;horizontal=1;startSize=50;horizontalStack=0;rounded=1;fontSize=14;fontStyle=0;strokeWidth=2;resizeParent=0;resizeLast=1;shadow=0;dashed=0;align=center;arcSize=4;whiteSpace=wrap;html=1;labelBackgroundColor=none;fillColor=#A8DADC;strokeColor=#457B9D;fontColor=#1D3557;" vertex="1" parent="1">
          <mxGeometry x="410" y="250" width="160" height="170" as="geometry" />
        </mxCell>
        <mxCell id="1t1-JDZ1b1aqbGwYgRup-10" value="&lt;div&gt;&amp;nbsp; &amp;nbsp; DateKey&amp;nbsp; &amp;nbsp; &amp;nbsp; &amp;nbsp; &amp;nbsp;&lt;/div&gt;&lt;div&gt;&amp;nbsp; &amp;nbsp; TimeKey&amp;nbsp; &amp;nbsp; &amp;nbsp; &amp;nbsp; &amp;nbsp;&lt;/div&gt;&lt;div&gt;&amp;nbsp; &amp;nbsp; StationKey&amp;nbsp; &amp;nbsp; &amp;nbsp;&amp;nbsp;&lt;/div&gt;&lt;div&gt;&amp;nbsp; &amp;nbsp; RouteKey&amp;nbsp; &amp;nbsp; &amp;nbsp; &amp;nbsp;&amp;nbsp;&lt;/div&gt;&lt;div&gt;&amp;nbsp; &amp;nbsp; PaymentMethodKey&amp;nbsp;&lt;/div&gt;&lt;div&gt;&amp;nbsp; &amp;nbsp; DeviceKey&amp;nbsp; &amp;nbsp; &amp;nbsp; &amp;nbsp;&lt;/div&gt;&lt;div&gt;&amp;nbsp; &amp;nbsp; FareAmount&amp;nbsp;&amp;nbsp;&lt;/div&gt;" style="align=left;strokeColor=none;fillColor=none;spacingLeft=4;spacingRight=4;fontSize=12;verticalAlign=top;resizable=0;rotatable=0;part=1;html=1;whiteSpace=wrap;labelBackgroundColor=none;fontColor=#1D3557;" vertex="1" parent="1t1-JDZ1b1aqbGwYgRup-9">
          <mxGeometry y="50" width="160" height="120" as="geometry" />
        </mxCell>
        <mxCell id="1t1-JDZ1b1aqbGwYgRup-43" style="edgeStyle=orthogonalEdgeStyle;rounded=0;orthogonalLoop=1;jettySize=auto;html=1;exitX=1;exitY=0.25;exitDx=0;exitDy=0;entryX=0;entryY=0.5;entryDx=0;entryDy=0;labelBackgroundColor=none;strokeColor=#457B9D;fontColor=default;" edge="1" parent="1" source="1t1-JDZ1b1aqbGwYgRup-11" target="1t1-JDZ1b1aqbGwYgRup-40">
          <mxGeometry relative="1" as="geometry" />
        </mxCell>
        <mxCell id="1t1-JDZ1b1aqbGwYgRup-11" value="&amp;nbsp;FactDailyCardTap" style="swimlane;childLayout=stackLayout;horizontal=1;startSize=50;horizontalStack=0;rounded=1;fontSize=14;fontStyle=0;strokeWidth=2;resizeParent=0;resizeLast=1;shadow=0;dashed=0;align=center;arcSize=4;whiteSpace=wrap;html=1;labelBackgroundColor=none;fillColor=#A8DADC;strokeColor=#457B9D;fontColor=#1D3557;" vertex="1" parent="1">
          <mxGeometry x="270" y="470" width="160" height="150" as="geometry" />
        </mxCell>
        <mxCell id="1t1-JDZ1b1aqbGwYgRup-12" value="&lt;div&gt;&amp;nbsp; &amp;nbsp; DateKey&amp;nbsp; &amp;nbsp; &amp;nbsp; &amp;nbsp; &amp;nbsp;&amp;nbsp;&lt;/div&gt;&lt;div&gt;&amp;nbsp; &amp;nbsp; StationKey&amp;nbsp; &amp;nbsp; &amp;nbsp; &amp;nbsp;&lt;/div&gt;&lt;div&gt;&amp;nbsp; &amp;nbsp; RouteKey&amp;nbsp; &amp;nbsp; &amp;nbsp; &amp;nbsp; &amp;nbsp;&lt;/div&gt;&lt;div&gt;&amp;nbsp; &amp;nbsp; PaymentMethodKey&amp;nbsp;&lt;/div&gt;&lt;div&gt;&amp;nbsp; &amp;nbsp; TotalBoardings&amp;nbsp; &amp;nbsp;&lt;/div&gt;&lt;div&gt;&amp;nbsp; &amp;nbsp; TotalRevenue&amp;nbsp; &amp;nbsp;&amp;nbsp;&lt;/div&gt;" style="align=left;strokeColor=none;fillColor=none;spacingLeft=4;spacingRight=4;fontSize=12;verticalAlign=top;resizable=0;rotatable=0;part=1;html=1;whiteSpace=wrap;labelBackgroundColor=none;fontColor=#1D3557;" vertex="1" parent="1t1-JDZ1b1aqbGwYgRup-11">
          <mxGeometry y="50" width="160" height="100" as="geometry" />
        </mxCell>
        <mxCell id="1t1-JDZ1b1aqbGwYgRup-60" style="edgeStyle=orthogonalEdgeStyle;rounded=0;orthogonalLoop=1;jettySize=auto;html=1;exitX=0;exitY=0.25;exitDx=0;exitDy=0;entryX=1;entryY=0.25;entryDx=0;entryDy=0;labelBackgroundColor=none;strokeColor=#457B9D;fontColor=default;" edge="1" parent="1" source="1t1-JDZ1b1aqbGwYgRup-13" target="1t1-JDZ1b1aqbGwYgRup-57">
          <mxGeometry relative="1" as="geometry" />
        </mxCell>
        <mxCell id="1t1-JDZ1b1aqbGwYgRup-61" style="edgeStyle=orthogonalEdgeStyle;rounded=0;orthogonalLoop=1;jettySize=auto;html=1;exitX=1;exitY=0.25;exitDx=0;exitDy=0;entryX=0;entryY=0.5;entryDx=0;entryDy=0;labelBackgroundColor=none;strokeColor=#457B9D;fontColor=default;" edge="1" parent="1" source="1t1-JDZ1b1aqbGwYgRup-13" target="1t1-JDZ1b1aqbGwYgRup-58">
          <mxGeometry relative="1" as="geometry" />
        </mxCell>
        <mxCell id="1t1-JDZ1b1aqbGwYgRup-13" value="FactAccTap" style="swimlane;childLayout=stackLayout;horizontal=1;startSize=50;horizontalStack=0;rounded=1;fontSize=14;fontStyle=0;strokeWidth=2;resizeParent=0;resizeLast=1;shadow=0;dashed=0;align=center;arcSize=4;whiteSpace=wrap;html=1;labelBackgroundColor=none;fillColor=#A8DADC;strokeColor=#457B9D;fontColor=#1D3557;" vertex="1" parent="1">
          <mxGeometry x="200" y="1090" width="160" height="180" as="geometry" />
        </mxCell>
        <mxCell id="1t1-JDZ1b1aqbGwYgRup-14" value="&lt;div&gt;&amp;nbsp; &amp;nbsp;StationKey&amp;nbsp; &amp;nbsp; &amp;nbsp; &amp;nbsp;&amp;nbsp;&lt;/div&gt;&lt;div&gt;&amp;nbsp; &amp;nbsp; RouteKey&amp;nbsp; &amp;nbsp; &amp;nbsp; &amp;nbsp; &amp;nbsp;&amp;nbsp;&lt;/div&gt;&lt;div&gt;&amp;nbsp; &amp;nbsp; PaymentMethodKey&amp;nbsp;&amp;nbsp;&lt;/div&gt;&lt;div&gt;&amp;nbsp; &amp;nbsp; TotalBoardings&amp;nbsp; &amp;nbsp;&amp;nbsp;&lt;/div&gt;&lt;div&gt;&amp;nbsp; &amp;nbsp; TotalRevenue&amp;nbsp; &amp;nbsp; &amp;nbsp;&amp;nbsp;&lt;/div&gt;&lt;div&gt;&lt;span style=&quot;white-space: normal;&quot;&gt;&amp;nbsp; &amp;nbsp; MaxRevenue&lt;span style=&quot;white-space:pre&quot;&gt;&#x9;&#x9;&lt;/span&gt;&amp;nbsp;&amp;nbsp;&lt;/span&gt;&lt;/div&gt;&lt;div&gt;&lt;span style=&quot;white-space: normal;&quot;&gt;&amp;nbsp; &amp;nbsp; &amp;nbsp;MinRevenue&lt;span style=&quot;white-space:pre&quot;&gt;&#x9;&lt;/span&gt;&lt;/span&gt;&lt;/div&gt;" style="align=left;strokeColor=none;fillColor=none;spacingLeft=4;spacingRight=4;fontSize=12;verticalAlign=top;resizable=0;rotatable=0;part=1;html=1;whiteSpace=wrap;labelBackgroundColor=none;fontColor=#1D3557;" vertex="1" parent="1t1-JDZ1b1aqbGwYgRup-13">
          <mxGeometry y="50" width="160" height="130" as="geometry" />
        </mxCell>
        <mxCell id="1t1-JDZ1b1aqbGwYgRup-53" style="edgeStyle=orthogonalEdgeStyle;rounded=0;orthogonalLoop=1;jettySize=auto;html=1;exitX=0;exitY=0.25;exitDx=0;exitDy=0;entryX=1;entryY=0.75;entryDx=0;entryDy=0;labelBackgroundColor=none;strokeColor=#457B9D;fontColor=default;" edge="1" parent="1" source="1t1-JDZ1b1aqbGwYgRup-16" target="1t1-JDZ1b1aqbGwYgRup-48">
          <mxGeometry relative="1" as="geometry" />
        </mxCell>
        <mxCell id="1t1-JDZ1b1aqbGwYgRup-16" value="FactTrnsArrival&amp;nbsp;" style="swimlane;childLayout=stackLayout;horizontal=1;startSize=50;horizontalStack=0;rounded=1;fontSize=14;fontStyle=0;strokeWidth=2;resizeParent=0;resizeLast=1;shadow=0;dashed=0;align=center;arcSize=4;whiteSpace=wrap;html=1;labelBackgroundColor=none;fillColor=#A8DADC;strokeColor=#457B9D;fontColor=#1D3557;" vertex="1" parent="1">
          <mxGeometry x="310" y="700" width="160" height="340" as="geometry" />
        </mxCell>
        <mxCell id="1t1-JDZ1b1aqbGwYgRup-17" value="JourneyID_BK&lt;div&gt;StationKey&amp;nbsp;&amp;nbsp;&lt;/div&gt;&lt;div&gt;DateKey&amp;nbsp;&lt;/div&gt;&lt;div&gt;&lt;div&gt;PlannedStartTK&amp;nbsp; &amp;nbsp;&amp;nbsp;&lt;/div&gt;&lt;div&gt;ActualStartTK&amp;nbsp; &amp;nbsp; &amp;nbsp;&amp;nbsp;&lt;/div&gt;&lt;div&gt;PlannedEndTK&amp;nbsp; &amp;nbsp; &amp;nbsp; &amp;nbsp;&lt;/div&gt;&lt;div&gt;&amp;nbsp;ActualEndTK&amp;nbsp;&amp;nbsp;&lt;/div&gt;&lt;div&gt;VehicleKey&lt;/div&gt;&lt;div&gt;RouteKey&amp;nbsp;&lt;/div&gt;&lt;div&gt;DriverKey&lt;/div&gt;&lt;div&gt;JourneyStatusKey&lt;/div&gt;&lt;div&gt;DistanceKM&amp;nbsp;&lt;/div&gt;&lt;div&gt;PassengerCount&lt;/div&gt;&lt;div&gt;CardBoarded&amp;nbsp; &amp;nbsp; &amp;nbsp; &amp;nbsp;&amp;nbsp;&lt;/div&gt;&lt;div&gt;&amp;nbsp;TicketBoarded&amp;nbsp; &amp;nbsp; &amp;nbsp;&amp;nbsp;&lt;span style=&quot;background-color: transparent; color: light-dark(rgb(0, 0, 0), rgb(255, 255, 255));&quot;&gt;BoardedCnt&amp;nbsp; &amp;nbsp; &amp;nbsp; &amp;nbsp; &amp;nbsp;&amp;nbsp;&lt;/span&gt;&lt;/div&gt;&lt;div&gt;&amp;nbsp; &amp;nbsp;AlightedCnt&amp;nbsp; &amp;nbsp; &amp;nbsp; &amp;nbsp;&amp;nbsp;&lt;/div&gt;&lt;div&gt;&lt;span style=&quot;background-color: transparent;&quot;&gt;&amp;nbsp; &amp;nbsp;DelaySeconds&amp;nbsp; &amp;nbsp;&amp;nbsp;&lt;/span&gt;&amp;nbsp;&lt;/div&gt;&lt;/div&gt;" style="align=left;strokeColor=none;fillColor=none;spacingLeft=4;spacingRight=4;fontSize=12;verticalAlign=top;resizable=0;rotatable=0;part=1;html=1;whiteSpace=wrap;labelBackgroundColor=none;fontColor=#1D3557;" vertex="1" parent="1t1-JDZ1b1aqbGwYgRup-16">
          <mxGeometry y="50" width="160" height="290" as="geometry" />
        </mxCell>
        <mxCell id="1t1-JDZ1b1aqbGwYgRup-18" value="FactAccJourney" style="swimlane;childLayout=stackLayout;horizontal=1;startSize=50;horizontalStack=0;rounded=1;fontSize=14;fontStyle=0;strokeWidth=2;resizeParent=0;resizeLast=1;shadow=0;dashed=0;align=center;arcSize=4;whiteSpace=wrap;html=1;labelBackgroundColor=none;fillColor=#A8DADC;strokeColor=#457B9D;fontColor=#1D3557;" vertex="1" parent="1">
          <mxGeometry x="510" y="1260" width="160" height="210" as="geometry" />
        </mxCell>
        <mxCell id="1t1-JDZ1b1aqbGwYgRup-19" value="&lt;div&gt;&amp;nbsp; &amp;nbsp; &amp;nbsp; &amp;nbsp; JourneyID_BK&amp;nbsp; &amp;nbsp; &amp;nbsp;&lt;/div&gt;&lt;div&gt;&lt;span style=&quot;white-space: normal;&quot;&gt;&lt;span style=&quot;white-space:pre&quot;&gt;&#x9;&lt;/span&gt;DateKey&amp;nbsp;&lt;/span&gt;&lt;/div&gt;&lt;div&gt;&lt;span style=&quot;white-space: normal;&quot;&gt;&lt;span style=&quot;white-space:pre&quot;&gt;&#x9;&lt;/span&gt;VehicleKey&amp;nbsp;&lt;/span&gt;&lt;/div&gt;&lt;div&gt;&lt;span style=&quot;white-space: normal;&quot;&gt;&lt;span style=&quot;white-space:pre&quot;&gt;&#x9;&lt;/span&gt;RouteKey&amp;nbsp;&lt;/span&gt;&lt;/div&gt;&lt;div&gt;&lt;span style=&quot;white-space: normal;&quot;&gt;&lt;span style=&quot;white-space:pre&quot;&gt;&#x9;&lt;/span&gt;DriverKey&amp;nbsp;&lt;/span&gt;&lt;/div&gt;&lt;div&gt;&lt;span style=&quot;white-space: normal;&quot;&gt;&lt;span style=&quot;white-space:pre&quot;&gt;&#x9;&lt;/span&gt;TotalPassengers&amp;nbsp;&lt;/span&gt;&lt;/div&gt;&lt;div&gt;&lt;span style=&quot;white-space: normal;&quot;&gt;&lt;span style=&quot;white-space:pre&quot;&gt;&#x9;&lt;/span&gt;MaxPassengers&amp;nbsp;&amp;nbsp;&lt;/span&gt;&lt;/div&gt;&lt;div&gt;&lt;span style=&quot;white-space: normal;&quot;&gt;&lt;span style=&quot;white-space:pre&quot;&gt;&#x9;&lt;/span&gt;AvgPassengers&amp;nbsp;&lt;/span&gt;&lt;/div&gt;&lt;div&gt;&lt;span style=&quot;white-space: normal;&quot;&gt;&lt;span style=&quot;white-space:pre&quot;&gt;&#x9;&lt;/span&gt;TotalDelay&amp;nbsp;&lt;/span&gt;&lt;/div&gt;&lt;div&gt;&lt;span style=&quot;white-space: normal;&quot;&gt;&lt;span style=&quot;white-space:pre&quot;&gt;&#x9;&lt;/span&gt;DistanceKM&amp;nbsp;&lt;/span&gt;&lt;/div&gt;" style="align=left;strokeColor=none;fillColor=none;spacingLeft=4;spacingRight=4;fontSize=12;verticalAlign=top;resizable=0;rotatable=0;part=1;html=1;whiteSpace=wrap;labelBackgroundColor=none;fontColor=#1D3557;" vertex="1" parent="1t1-JDZ1b1aqbGwYgRup-18">
          <mxGeometry y="50" width="160" height="160" as="geometry" />
        </mxCell>
        <mxCell id="1t1-JDZ1b1aqbGwYgRup-64" style="edgeStyle=orthogonalEdgeStyle;rounded=0;orthogonalLoop=1;jettySize=auto;html=1;exitX=1;exitY=0.25;exitDx=0;exitDy=0;entryX=0;entryY=0.5;entryDx=0;entryDy=0;labelBackgroundColor=none;strokeColor=#457B9D;fontColor=default;" edge="1" parent="1" source="1t1-JDZ1b1aqbGwYgRup-20" target="1t1-JDZ1b1aqbGwYgRup-63">
          <mxGeometry relative="1" as="geometry" />
        </mxCell>
        <mxCell id="1t1-JDZ1b1aqbGwYgRup-20" value="FactDailyVehicleStatus" style="swimlane;childLayout=stackLayout;horizontal=1;startSize=50;horizontalStack=0;rounded=1;fontSize=14;fontStyle=0;strokeWidth=2;resizeParent=0;resizeLast=1;shadow=0;dashed=0;align=center;arcSize=4;whiteSpace=wrap;html=1;labelBackgroundColor=none;fillColor=#A8DADC;strokeColor=#457B9D;fontColor=#1D3557;" vertex="1" parent="1">
          <mxGeometry x="20" y="1350" width="160" height="120" as="geometry" />
        </mxCell>
        <mxCell id="1t1-JDZ1b1aqbGwYgRup-21" value="&lt;div&gt;&amp;nbsp; &amp;nbsp; DateKey&lt;span style=&quot;white-space:pre&quot;&gt;&#x9;&#x9;&#x9;&lt;/span&gt;&lt;/div&gt;&lt;div&gt;&amp;nbsp; &amp;nbsp; VehicleKey&lt;span style=&quot;white-space:pre&quot;&gt;&#x9;&#x9;&lt;/span&gt;&lt;/div&gt;&lt;div&gt;&amp;nbsp; &amp;nbsp; ActiveHours&lt;span style=&quot;white-space:pre&quot;&gt;&#x9;&#x9;&lt;/span&gt;&lt;/div&gt;&lt;div&gt;&amp;nbsp; &amp;nbsp; TotalPassengers&lt;/div&gt;" style="align=left;strokeColor=none;fillColor=none;spacingLeft=4;spacingRight=4;fontSize=12;verticalAlign=top;resizable=0;rotatable=0;part=1;html=1;whiteSpace=wrap;labelBackgroundColor=none;fontColor=#1D3557;" vertex="1" parent="1t1-JDZ1b1aqbGwYgRup-20">
          <mxGeometry y="50" width="160" height="70" as="geometry" />
        </mxCell>
        <mxCell id="1t1-JDZ1b1aqbGwYgRup-22" value="FactlessRouteStation" style="swimlane;childLayout=stackLayout;horizontal=1;startSize=50;horizontalStack=0;rounded=1;fontSize=14;fontStyle=0;strokeWidth=2;resizeParent=0;resizeLast=1;shadow=0;dashed=0;align=center;arcSize=4;whiteSpace=wrap;html=1;labelBackgroundColor=none;fillColor=#A8DADC;strokeColor=#457B9D;fontColor=#1D3557;" vertex="1" parent="1">
          <mxGeometry x="155" y="1550" width="160" height="120" as="geometry" />
        </mxCell>
        <mxCell id="1t1-JDZ1b1aqbGwYgRup-23" value="RouteKey&lt;div&gt;StationKey&lt;/div&gt;&lt;div&gt;SeqNo&lt;/div&gt;" style="align=left;strokeColor=none;fillColor=none;spacingLeft=4;spacingRight=4;fontSize=12;verticalAlign=top;resizable=0;rotatable=0;part=1;html=1;whiteSpace=wrap;labelBackgroundColor=none;fontColor=#1D3557;" vertex="1" parent="1t1-JDZ1b1aqbGwYgRup-22">
          <mxGeometry y="50" width="160" height="70" as="geometry" />
        </mxCell>
        <mxCell id="1t1-JDZ1b1aqbGwYgRup-26" value="DimDate" style="rounded=1;arcSize=10;whiteSpace=wrap;html=1;align=center;labelBackgroundColor=none;fillColor=#A8DADC;strokeColor=#457B9D;fontColor=#1D3557;" vertex="1" parent="1">
          <mxGeometry x="670" y="290" width="100" height="40" as="geometry" />
        </mxCell>
        <mxCell id="1t1-JDZ1b1aqbGwYgRup-27" value="&amp;nbsp;DimTime" style="rounded=1;arcSize=10;whiteSpace=wrap;html=1;align=center;labelBackgroundColor=none;fillColor=#A8DADC;strokeColor=#457B9D;fontColor=#1D3557;" vertex="1" parent="1">
          <mxGeometry x="670" y="350" width="100" height="40" as="geometry" />
        </mxCell>
        <mxCell id="1t1-JDZ1b1aqbGwYgRup-28" value="DimStation" style="rounded=1;arcSize=10;whiteSpace=wrap;html=1;align=center;labelBackgroundColor=none;fillColor=#A8DADC;strokeColor=#457B9D;fontColor=#1D3557;" vertex="1" parent="1">
          <mxGeometry x="180" y="260" width="100" height="40" as="geometry" />
        </mxCell>
        <mxCell id="1t1-JDZ1b1aqbGwYgRup-29" value="DimRoute" style="rounded=1;arcSize=10;whiteSpace=wrap;html=1;align=center;labelBackgroundColor=none;fillColor=#A8DADC;strokeColor=#457B9D;fontColor=#1D3557;" vertex="1" parent="1">
          <mxGeometry x="180" y="330" width="100" height="40" as="geometry" />
        </mxCell>
        <mxCell id="1t1-JDZ1b1aqbGwYgRup-30" value="DimVehicle" style="rounded=1;arcSize=10;whiteSpace=wrap;html=1;align=center;labelBackgroundColor=none;fillColor=#A8DADC;strokeColor=#457B9D;fontColor=#1D3557;" vertex="1" parent="1">
          <mxGeometry x="160" y="760" width="100" height="40" as="geometry" />
        </mxCell>
        <mxCell id="1t1-JDZ1b1aqbGwYgRup-32" value="DimEmployee" style="rounded=1;arcSize=10;whiteSpace=wrap;html=1;align=center;labelBackgroundColor=none;fillColor=#A8DADC;strokeColor=#457B9D;fontColor=#1D3557;" vertex="1" parent="1">
          <mxGeometry x="160" y="870" width="100" height="40" as="geometry" />
        </mxCell>
        <mxCell id="1t1-JDZ1b1aqbGwYgRup-33" value="DimPaymentMethod" style="rounded=1;arcSize=10;whiteSpace=wrap;html=1;align=center;labelBackgroundColor=none;fillColor=#A8DADC;strokeColor=#457B9D;fontColor=#1D3557;" vertex="1" parent="1">
          <mxGeometry x="160" y="390" width="140" height="40" as="geometry" />
        </mxCell>
        <mxCell id="1t1-JDZ1b1aqbGwYgRup-34" style="edgeStyle=orthogonalEdgeStyle;rounded=0;orthogonalLoop=1;jettySize=auto;html=1;exitX=1;exitY=0.25;exitDx=0;exitDy=0;entryX=0;entryY=0.5;entryDx=0;entryDy=0;labelBackgroundColor=none;strokeColor=#457B9D;fontColor=default;" edge="1" parent="1" source="1t1-JDZ1b1aqbGwYgRup-10" target="1t1-JDZ1b1aqbGwYgRup-26">
          <mxGeometry relative="1" as="geometry" />
        </mxCell>
        <mxCell id="1t1-JDZ1b1aqbGwYgRup-35" style="edgeStyle=orthogonalEdgeStyle;rounded=0;orthogonalLoop=1;jettySize=auto;html=1;exitX=1;exitY=0.5;exitDx=0;exitDy=0;entryX=0;entryY=0.5;entryDx=0;entryDy=0;labelBackgroundColor=none;strokeColor=#457B9D;fontColor=default;" edge="1" parent="1" source="1t1-JDZ1b1aqbGwYgRup-10" target="1t1-JDZ1b1aqbGwYgRup-27">
          <mxGeometry relative="1" as="geometry" />
        </mxCell>
        <mxCell id="1t1-JDZ1b1aqbGwYgRup-36" style="edgeStyle=orthogonalEdgeStyle;rounded=0;orthogonalLoop=1;jettySize=auto;html=1;exitX=0;exitY=0.25;exitDx=0;exitDy=0;entryX=1;entryY=0.5;entryDx=0;entryDy=0;labelBackgroundColor=none;strokeColor=#457B9D;fontColor=default;" edge="1" parent="1" source="1t1-JDZ1b1aqbGwYgRup-10" target="1t1-JDZ1b1aqbGwYgRup-28">
          <mxGeometry relative="1" as="geometry">
            <mxPoint x="360" y="280" as="targetPoint" />
          </mxGeometry>
        </mxCell>
        <mxCell id="1t1-JDZ1b1aqbGwYgRup-37" style="edgeStyle=orthogonalEdgeStyle;rounded=0;orthogonalLoop=1;jettySize=auto;html=1;exitX=0;exitY=0.5;exitDx=0;exitDy=0;entryX=1;entryY=0.25;entryDx=0;entryDy=0;labelBackgroundColor=none;strokeColor=#457B9D;fontColor=default;" edge="1" parent="1" source="1t1-JDZ1b1aqbGwYgRup-10" target="1t1-JDZ1b1aqbGwYgRup-29">
          <mxGeometry relative="1" as="geometry" />
        </mxCell>
        <mxCell id="1t1-JDZ1b1aqbGwYgRup-38" style="edgeStyle=orthogonalEdgeStyle;rounded=0;orthogonalLoop=1;jettySize=auto;html=1;exitX=0;exitY=0.75;exitDx=0;exitDy=0;entryX=1;entryY=0.5;entryDx=0;entryDy=0;labelBackgroundColor=none;strokeColor=#457B9D;fontColor=default;" edge="1" parent="1" source="1t1-JDZ1b1aqbGwYgRup-10" target="1t1-JDZ1b1aqbGwYgRup-33">
          <mxGeometry relative="1" as="geometry" />
        </mxCell>
        <mxCell id="1t1-JDZ1b1aqbGwYgRup-39" style="edgeStyle=orthogonalEdgeStyle;rounded=0;orthogonalLoop=1;jettySize=auto;html=1;exitX=1;exitY=0.75;exitDx=0;exitDy=0;entryX=0.003;entryY=0.35;entryDx=0;entryDy=0;entryPerimeter=0;labelBackgroundColor=none;strokeColor=#457B9D;fontColor=default;" edge="1" parent="1" source="1t1-JDZ1b1aqbGwYgRup-10" target="1t1-JDZ1b1aqbGwYgRup-7">
          <mxGeometry relative="1" as="geometry" />
        </mxCell>
        <mxCell id="1t1-JDZ1b1aqbGwYgRup-40" value="DimDate" style="rounded=1;arcSize=10;whiteSpace=wrap;html=1;align=center;labelBackgroundColor=none;fillColor=#A8DADC;strokeColor=#457B9D;fontColor=#1D3557;" vertex="1" parent="1">
          <mxGeometry x="480" y="480" width="100" height="40" as="geometry" />
        </mxCell>
        <mxCell id="1t1-JDZ1b1aqbGwYgRup-41" value="DimStation" style="rounded=1;arcSize=10;whiteSpace=wrap;html=1;align=center;labelBackgroundColor=none;fillColor=#A8DADC;strokeColor=#457B9D;fontColor=#1D3557;" vertex="1" parent="1">
          <mxGeometry x="480" y="540" width="100" height="40" as="geometry" />
        </mxCell>
        <mxCell id="1t1-JDZ1b1aqbGwYgRup-42" value="DimRoute" style="rounded=1;arcSize=10;whiteSpace=wrap;html=1;align=center;labelBackgroundColor=none;fillColor=#A8DADC;strokeColor=#457B9D;fontColor=#1D3557;" vertex="1" parent="1">
          <mxGeometry x="480" y="610" width="100" height="40" as="geometry" />
        </mxCell>
        <mxCell id="1t1-JDZ1b1aqbGwYgRup-44" style="edgeStyle=orthogonalEdgeStyle;rounded=0;orthogonalLoop=1;jettySize=auto;html=1;exitX=1;exitY=0.25;exitDx=0;exitDy=0;entryX=0;entryY=0.75;entryDx=0;entryDy=0;labelBackgroundColor=none;strokeColor=#457B9D;fontColor=default;" edge="1" parent="1" source="1t1-JDZ1b1aqbGwYgRup-12" target="1t1-JDZ1b1aqbGwYgRup-41">
          <mxGeometry relative="1" as="geometry" />
        </mxCell>
        <mxCell id="1t1-JDZ1b1aqbGwYgRup-45" style="edgeStyle=orthogonalEdgeStyle;rounded=0;orthogonalLoop=1;jettySize=auto;html=1;exitX=1;exitY=0.75;exitDx=0;exitDy=0;entryX=0;entryY=0.5;entryDx=0;entryDy=0;labelBackgroundColor=none;strokeColor=#457B9D;fontColor=default;" edge="1" parent="1" source="1t1-JDZ1b1aqbGwYgRup-12" target="1t1-JDZ1b1aqbGwYgRup-42">
          <mxGeometry relative="1" as="geometry" />
        </mxCell>
        <mxCell id="1t1-JDZ1b1aqbGwYgRup-46" value="DimPaymentMethod" style="rounded=1;arcSize=10;whiteSpace=wrap;html=1;align=center;labelBackgroundColor=none;fillColor=#A8DADC;strokeColor=#457B9D;fontColor=#1D3557;" vertex="1" parent="1">
          <mxGeometry x="80" y="500" width="140" height="40" as="geometry" />
        </mxCell>
        <mxCell id="1t1-JDZ1b1aqbGwYgRup-47" style="edgeStyle=orthogonalEdgeStyle;rounded=0;orthogonalLoop=1;jettySize=auto;html=1;exitX=0;exitY=0.5;exitDx=0;exitDy=0;entryX=1;entryY=0.5;entryDx=0;entryDy=0;labelBackgroundColor=none;strokeColor=#457B9D;fontColor=default;" edge="1" parent="1" source="1t1-JDZ1b1aqbGwYgRup-12" target="1t1-JDZ1b1aqbGwYgRup-46">
          <mxGeometry relative="1" as="geometry" />
        </mxCell>
        <mxCell id="1t1-JDZ1b1aqbGwYgRup-48" value="DimStation" style="rounded=1;arcSize=10;whiteSpace=wrap;html=1;align=center;labelBackgroundColor=none;fillColor=#A8DADC;strokeColor=#457B9D;fontColor=#1D3557;" vertex="1" parent="1">
          <mxGeometry x="160" y="700" width="100" height="40" as="geometry" />
        </mxCell>
        <mxCell id="1t1-JDZ1b1aqbGwYgRup-49" value="DimDate" style="rounded=1;arcSize=10;whiteSpace=wrap;html=1;align=center;labelBackgroundColor=none;fillColor=#A8DADC;strokeColor=#457B9D;fontColor=#1D3557;" vertex="1" parent="1">
          <mxGeometry x="550" y="710" width="100" height="40" as="geometry" />
        </mxCell>
        <mxCell id="1t1-JDZ1b1aqbGwYgRup-50" value="DimRoute" style="rounded=1;arcSize=10;whiteSpace=wrap;html=1;align=center;labelBackgroundColor=none;fillColor=#A8DADC;strokeColor=#457B9D;fontColor=#1D3557;" vertex="1" parent="1">
          <mxGeometry x="160" y="820" width="100" height="40" as="geometry" />
        </mxCell>
        <mxCell id="1t1-JDZ1b1aqbGwYgRup-51" style="edgeStyle=orthogonalEdgeStyle;rounded=0;orthogonalLoop=1;jettySize=auto;html=1;exitX=1;exitY=0;exitDx=0;exitDy=0;labelBackgroundColor=none;strokeColor=#457B9D;fontColor=default;" edge="1" parent="1" source="1t1-JDZ1b1aqbGwYgRup-17" target="1t1-JDZ1b1aqbGwYgRup-49">
          <mxGeometry relative="1" as="geometry" />
        </mxCell>
        <mxCell id="1t1-JDZ1b1aqbGwYgRup-52" style="edgeStyle=orthogonalEdgeStyle;rounded=0;orthogonalLoop=1;jettySize=auto;html=1;exitX=1;exitY=0.25;exitDx=0;exitDy=0;entryX=0;entryY=0.25;entryDx=0;entryDy=0;labelBackgroundColor=none;strokeColor=#457B9D;fontColor=default;" edge="1" parent="1" source="1t1-JDZ1b1aqbGwYgRup-17" target="1t1-JDZ1b1aqbGwYgRup-1">
          <mxGeometry relative="1" as="geometry" />
        </mxCell>
        <mxCell id="1t1-JDZ1b1aqbGwYgRup-54" style="edgeStyle=orthogonalEdgeStyle;rounded=0;orthogonalLoop=1;jettySize=auto;html=1;exitX=0;exitY=0.25;exitDx=0;exitDy=0;entryX=1;entryY=0.75;entryDx=0;entryDy=0;labelBackgroundColor=none;strokeColor=#457B9D;fontColor=default;" edge="1" parent="1" source="1t1-JDZ1b1aqbGwYgRup-17" target="1t1-JDZ1b1aqbGwYgRup-30">
          <mxGeometry relative="1" as="geometry" />
        </mxCell>
        <mxCell id="1t1-JDZ1b1aqbGwYgRup-55" style="edgeStyle=orthogonalEdgeStyle;rounded=0;orthogonalLoop=1;jettySize=auto;html=1;exitX=0;exitY=0.5;exitDx=0;exitDy=0;entryX=1;entryY=0.5;entryDx=0;entryDy=0;labelBackgroundColor=none;strokeColor=#457B9D;fontColor=default;" edge="1" parent="1" source="1t1-JDZ1b1aqbGwYgRup-17" target="1t1-JDZ1b1aqbGwYgRup-50">
          <mxGeometry relative="1" as="geometry" />
        </mxCell>
        <mxCell id="1t1-JDZ1b1aqbGwYgRup-56" style="edgeStyle=orthogonalEdgeStyle;rounded=0;orthogonalLoop=1;jettySize=auto;html=1;exitX=0;exitY=0.75;exitDx=0;exitDy=0;entryX=0.844;entryY=1.02;entryDx=0;entryDy=0;entryPerimeter=0;labelBackgroundColor=none;strokeColor=#457B9D;fontColor=default;" edge="1" parent="1" source="1t1-JDZ1b1aqbGwYgRup-17" target="1t1-JDZ1b1aqbGwYgRup-32">
          <mxGeometry relative="1" as="geometry" />
        </mxCell>
        <mxCell id="1t1-JDZ1b1aqbGwYgRup-57" value="DimStation" style="rounded=1;arcSize=10;whiteSpace=wrap;html=1;align=center;labelBackgroundColor=none;fillColor=#A8DADC;strokeColor=#457B9D;fontColor=#1D3557;" vertex="1" parent="1">
          <mxGeometry x="30" y="1090" width="100" height="40" as="geometry" />
        </mxCell>
        <mxCell id="1t1-JDZ1b1aqbGwYgRup-58" value="DimRoute" style="rounded=1;arcSize=10;whiteSpace=wrap;html=1;align=center;labelBackgroundColor=none;fillColor=#A8DADC;strokeColor=#457B9D;fontColor=#1D3557;" vertex="1" parent="1">
          <mxGeometry x="400" y="1090" width="100" height="40" as="geometry" />
        </mxCell>
        <mxCell id="1t1-JDZ1b1aqbGwYgRup-59" value="DimPaymentMethod" style="rounded=1;arcSize=10;whiteSpace=wrap;html=1;align=center;labelBackgroundColor=none;fillColor=#A8DADC;strokeColor=#457B9D;fontColor=#1D3557;" vertex="1" parent="1">
          <mxGeometry x="10" y="1200" width="140" height="40" as="geometry" />
        </mxCell>
        <mxCell id="1t1-JDZ1b1aqbGwYgRup-62" style="edgeStyle=orthogonalEdgeStyle;rounded=0;orthogonalLoop=1;jettySize=auto;html=1;exitX=0;exitY=0.5;exitDx=0;exitDy=0;entryX=1;entryY=0.5;entryDx=0;entryDy=0;labelBackgroundColor=none;strokeColor=#457B9D;fontColor=default;" edge="1" parent="1" source="1t1-JDZ1b1aqbGwYgRup-14" target="1t1-JDZ1b1aqbGwYgRup-59">
          <mxGeometry relative="1" as="geometry" />
        </mxCell>
        <mxCell id="1t1-JDZ1b1aqbGwYgRup-63" value="DimDate" style="rounded=1;arcSize=10;whiteSpace=wrap;html=1;align=center;labelBackgroundColor=none;fillColor=#A8DADC;strokeColor=#457B9D;fontColor=#1D3557;" vertex="1" parent="1">
          <mxGeometry x="220" y="1350" width="100" height="40" as="geometry" />
        </mxCell>
        <mxCell id="1t1-JDZ1b1aqbGwYgRup-65" value="DimVehicle" style="rounded=1;arcSize=10;whiteSpace=wrap;html=1;align=center;labelBackgroundColor=none;fillColor=#A8DADC;strokeColor=#457B9D;fontColor=#1D3557;" vertex="1" parent="1">
          <mxGeometry x="220" y="1400" width="100" height="40" as="geometry" />
        </mxCell>
        <mxCell id="1t1-JDZ1b1aqbGwYgRup-66" style="edgeStyle=orthogonalEdgeStyle;rounded=0;orthogonalLoop=1;jettySize=auto;html=1;exitX=1;exitY=0.25;exitDx=0;exitDy=0;entryX=0;entryY=0.5;entryDx=0;entryDy=0;labelBackgroundColor=none;strokeColor=#457B9D;fontColor=default;" edge="1" parent="1" source="1t1-JDZ1b1aqbGwYgRup-21" target="1t1-JDZ1b1aqbGwYgRup-65">
          <mxGeometry relative="1" as="geometry" />
        </mxCell>
        <mxCell id="1t1-JDZ1b1aqbGwYgRup-67" value="DimRoute" style="rounded=1;arcSize=10;whiteSpace=wrap;html=1;align=center;labelBackgroundColor=none;fillColor=#A8DADC;strokeColor=#457B9D;fontColor=#1D3557;" vertex="1" parent="1">
          <mxGeometry x="370" y="1540" width="100" height="40" as="geometry" />
        </mxCell>
        <mxCell id="1t1-JDZ1b1aqbGwYgRup-68" style="edgeStyle=orthogonalEdgeStyle;rounded=0;orthogonalLoop=1;jettySize=auto;html=1;exitX=1;exitY=0.25;exitDx=0;exitDy=0;entryX=0;entryY=0.5;entryDx=0;entryDy=0;labelBackgroundColor=none;strokeColor=#457B9D;fontColor=default;" edge="1" parent="1" source="1t1-JDZ1b1aqbGwYgRup-23" target="1t1-JDZ1b1aqbGwYgRup-67">
          <mxGeometry relative="1" as="geometry" />
        </mxCell>
        <mxCell id="1t1-JDZ1b1aqbGwYgRup-69" value="DimStation" style="rounded=1;arcSize=10;whiteSpace=wrap;html=1;align=center;labelBackgroundColor=none;fillColor=#A8DADC;strokeColor=#457B9D;fontColor=#1D3557;" vertex="1" parent="1">
          <mxGeometry x="15" y="1580" width="100" height="40" as="geometry" />
        </mxCell>
        <mxCell id="1t1-JDZ1b1aqbGwYgRup-70" style="edgeStyle=orthogonalEdgeStyle;rounded=0;orthogonalLoop=1;jettySize=auto;html=1;exitX=0;exitY=0.5;exitDx=0;exitDy=0;entryX=1;entryY=0.5;entryDx=0;entryDy=0;labelBackgroundColor=none;strokeColor=#457B9D;fontColor=default;" edge="1" parent="1" source="1t1-JDZ1b1aqbGwYgRup-23" target="1t1-JDZ1b1aqbGwYgRup-69">
          <mxGeometry relative="1" as="geometry" />
        </mxCell>
        <mxCell id="1t1-JDZ1b1aqbGwYgRup-71" value="DimDate" style="rounded=1;arcSize=10;whiteSpace=wrap;html=1;align=center;labelBackgroundColor=none;fillColor=#A8DADC;strokeColor=#457B9D;fontColor=#1D3557;" vertex="1" parent="1">
          <mxGeometry x="710" y="1250" width="100" height="40" as="geometry" />
        </mxCell>
        <mxCell id="1t1-JDZ1b1aqbGwYgRup-72" style="edgeStyle=orthogonalEdgeStyle;rounded=0;orthogonalLoop=1;jettySize=auto;html=1;exitX=1;exitY=0;exitDx=0;exitDy=0;entryX=0;entryY=0.5;entryDx=0;entryDy=0;labelBackgroundColor=none;strokeColor=#457B9D;fontColor=default;" edge="1" parent="1" source="1t1-JDZ1b1aqbGwYgRup-19" target="1t1-JDZ1b1aqbGwYgRup-71">
          <mxGeometry relative="1" as="geometry" />
        </mxCell>
        <mxCell id="1t1-JDZ1b1aqbGwYgRup-73" value="DimVehicle" style="rounded=1;arcSize=10;whiteSpace=wrap;html=1;align=center;labelBackgroundColor=none;fillColor=#A8DADC;strokeColor=#457B9D;fontColor=#1D3557;" vertex="1" parent="1">
          <mxGeometry x="710" y="1300" width="100" height="40" as="geometry" />
        </mxCell>
        <mxCell id="1t1-JDZ1b1aqbGwYgRup-74" style="edgeStyle=orthogonalEdgeStyle;rounded=0;orthogonalLoop=1;jettySize=auto;html=1;exitX=1;exitY=0.25;exitDx=0;exitDy=0;entryX=0;entryY=0.5;entryDx=0;entryDy=0;labelBackgroundColor=none;strokeColor=#457B9D;fontColor=default;" edge="1" parent="1" source="1t1-JDZ1b1aqbGwYgRup-19" target="1t1-JDZ1b1aqbGwYgRup-73">
          <mxGeometry relative="1" as="geometry" />
        </mxCell>
        <mxCell id="1t1-JDZ1b1aqbGwYgRup-75" value="DimRoute" style="rounded=1;arcSize=10;whiteSpace=wrap;html=1;align=center;labelBackgroundColor=none;fillColor=#A8DADC;strokeColor=#457B9D;fontColor=#1D3557;" vertex="1" parent="1">
          <mxGeometry x="710" y="1350" width="100" height="40" as="geometry" />
        </mxCell>
        <mxCell id="1t1-JDZ1b1aqbGwYgRup-76" style="edgeStyle=orthogonalEdgeStyle;rounded=0;orthogonalLoop=1;jettySize=auto;html=1;exitX=1;exitY=0.5;exitDx=0;exitDy=0;entryX=0;entryY=0.5;entryDx=0;entryDy=0;labelBackgroundColor=none;strokeColor=#457B9D;fontColor=default;" edge="1" parent="1" source="1t1-JDZ1b1aqbGwYgRup-19" target="1t1-JDZ1b1aqbGwYgRup-75">
          <mxGeometry relative="1" as="geometry" />
        </mxCell>
        <mxCell id="1t1-JDZ1b1aqbGwYgRup-77" value="DimEmployee" style="rounded=1;arcSize=10;whiteSpace=wrap;html=1;align=center;labelBackgroundColor=none;fillColor=#A8DADC;strokeColor=#457B9D;fontColor=#1D3557;" vertex="1" parent="1">
          <mxGeometry x="380" y="1280" width="100" height="40" as="geometry" />
        </mxCell>
        <mxCell id="1t1-JDZ1b1aqbGwYgRup-78" style="edgeStyle=orthogonalEdgeStyle;rounded=0;orthogonalLoop=1;jettySize=auto;html=1;exitX=0;exitY=0.25;exitDx=0;exitDy=0;entryX=1;entryY=0.5;entryDx=0;entryDy=0;labelBackgroundColor=none;strokeColor=#457B9D;fontColor=default;" edge="1" parent="1" source="1t1-JDZ1b1aqbGwYgRup-19" target="1t1-JDZ1b1aqbGwYgRup-77">
          <mxGeometry relative="1" as="geometry" />
        </mxCell>
      </root>
    </mxGraphModel>
  </diagram>
</mxfile>
